<svg width="26" height="26" viewBox="0 0 26 26" fill="none" xmlns="http://www.w3.org/2000/svg">
<g clip-path="url(#clip0_34_27)">
<path d="M13 0C5.81999 0 0 5.81999 0 13C0 20.18 5.81999 26 13 26C20.18 26 26 20.18 26 13C26 5.81999 20.18 0 13 0ZM13 23.9688C6.94195 23.9688 2.03125 19.0581 2.03125 13C2.03125 6.94195 6.94195 2.03125 13 2.03125C19.0581 2.03125 23.9688 6.94195 23.9688 13C23.9688 19.0581 19.0581 23.9688 13 23.9688Z" fill="url(#paint0_linear_34_27)"/>
<path d="M16.039 10.0729C16.0477 10.0166 16.0516 9.9642 16.0516 9.9158C16.0516 9.46908 15.7724 9.24691 15.2138 9.24691C14.9456 9.24691 14.7646 9.29292 14.671 9.38341C14.5758 9.47543 14.5107 9.65717 14.4727 9.92931C14.2584 9.62777 14.0426 9.42464 13.8252 9.31912C13.6252 9.22309 13.3388 9.17551 12.9683 9.17551C12.0137 9.17551 11.1854 9.66108 10.4863 10.6315C9.84202 11.5241 9.52067 12.4779 9.52067 13.492C9.52067 14.2839 9.72933 14.9788 10.1475 15.5788C10.6109 16.2397 11.2171 16.5698 11.9638 16.5698C12.6033 16.5698 13.2174 16.3405 13.8054 15.8819C14.0705 16.3405 14.5235 16.5698 15.163 16.5698C16.3738 16.5698 17.4109 16.0589 18.2718 15.0361C19.0906 14.0633 19.5 12.9444 19.5 11.6813C19.5 10.1705 18.8644 8.91053 17.5933 7.90202C16.4159 6.96815 15.0693 6.5 13.5507 6.5C11.575 6.5 9.91666 7.12446 8.5733 8.37413C7.19108 9.66271 6.5 11.3068 6.5 13.3078C6.5 15.3526 7.20855 16.9229 8.62408 18.0193C9.89518 19.0073 11.5623 19.5 13.6268 19.5C14.506 19.5 15.363 19.3627 16.1992 19.0866C17.1164 18.7859 17.871 18.3574 18.4638 17.802C18.6551 17.6187 18.8391 17.3957 19.0136 17.1339C19.2318 16.8141 19.3397 16.5563 19.3397 16.3603C19.3397 16.2119 19.2881 16.0794 19.1834 15.9628C19.0795 15.8469 18.9541 15.789 18.8098 15.789C18.536 15.789 18.3059 15.8858 18.1179 16.077C17.8077 16.4103 17.5768 16.6642 17.4275 16.8388C16.4119 17.7259 15.1503 18.1694 13.6395 18.1694C12.0193 18.1694 10.7228 17.7719 9.75081 16.9768C8.68837 16.1081 8.15755 14.8631 8.15755 13.2429C8.15755 11.6702 8.66221 10.3563 9.67383 9.30099C10.6847 8.24642 11.9582 7.71875 13.4927 7.71875C14.7004 7.71875 15.7041 8.06152 16.5055 8.74864C17.364 9.47705 17.7917 10.4467 17.7917 11.6559C17.7917 12.2891 17.6838 12.8794 17.4656 13.4245C17.2228 14.0362 16.8704 14.5075 16.4103 14.8391C16.0643 15.0876 15.7937 15.2121 15.5978 15.2121C15.3843 15.2121 15.278 15.1121 15.278 14.9114C15.278 14.828 15.3327 14.4441 15.4446 13.7577L16.039 10.0729ZM13.5761 13.6895C13.1833 14.7789 12.7651 15.3241 12.3224 15.3241C11.6606 15.3241 11.3298 14.902 11.3298 14.0569C11.3298 13.4007 11.5194 12.662 11.9002 11.8384C12.3438 10.8664 12.8484 10.3808 13.4158 10.3808C13.6507 10.3808 13.8252 10.5078 13.9403 10.7609C14.0339 10.9544 14.0807 11.1846 14.0807 11.4512C14.0807 12.0209 13.9132 12.7667 13.5761 13.6895Z" fill="url(#paint1_linear_34_27)"/>
</g>
<defs>
<linearGradient id="paint0_linear_34_27" x1="13" y1="0" x2="13" y2="26" gradientUnits="userSpaceOnUse">
<stop stop-color="#D3ACE1"/>
<stop offset="1" stop-color="#9F60B5"/>
</linearGradient>
<linearGradient id="paint1_linear_34_27" x1="13" y1="6.5" x2="13" y2="19.5" gradientUnits="userSpaceOnUse">
<stop stop-color="#D3ACE1"/>
<stop offset="1" stop-color="#9F60B5"/>
</linearGradient>
<clipPath id="clip0_34_27">
<rect width="26" height="26" fill="white"/>
</clipPath>
</defs>
</svg>
