<svg width="26" height="26" viewBox="0 0 26 26" fill="none" xmlns="http://www.w3.org/2000/svg">
<g clip-path="url(#clip0_49_2)">
<path d="M13 0C16.4478 0 19.7544 1.36964 22.1924 3.80761C24.6304 6.24558 26 9.55219 26 13C26 16.4478 24.6304 19.7544 22.1924 22.1924C19.7544 24.6304 16.4478 26 13 26C9.55219 26 6.24558 24.6304 3.80761 22.1924C1.36964 19.7544 0 16.4478 0 13C0 9.55219 1.36964 6.24558 3.80761 3.80761C6.24558 1.36964 9.55219 0 13 0ZM13 2.12333C7.0265 2.12333 2.16667 6.98317 2.16667 13C2.16388 15.2868 2.88195 17.5164 4.21882 19.3717C5.55569 21.2271 7.44335 22.6139 9.6135 23.335C9.64585 23.3399 9.67837 23.3435 9.711 23.3458C10.1508 23.3675 10.3155 23.0663 10.3155 22.8042L10.3003 20.9538C7.28867 21.6103 6.65167 19.4935 6.65167 19.4935C6.15983 18.2368 5.44917 17.9032 5.44917 17.9032C4.4655 17.2272 5.52283 17.2402 5.52283 17.2402C6.31367 17.2965 6.8315 17.8642 7.05683 18.1718L7.1825 18.3625C8.14883 20.0243 9.7175 19.5455 10.335 19.2682C10.4347 18.564 10.712 18.0852 11.0218 17.8122C8.61683 17.537 6.08833 16.6032 6.08833 12.4345C6.08833 11.2472 6.51083 10.2765 7.20417 9.51383L7.13917 9.32967C7.0005 8.88983 6.80983 7.904 7.31033 6.63433L7.397 6.61917C7.66567 6.5845 8.58433 6.591 10.2895 7.75017C11.1728 7.50857 12.0843 7.38543 13 7.384C13.9208 7.38833 14.8482 7.50967 15.7127 7.75233C17.7818 6.344 18.6897 6.63433 18.6897 6.63433C19.279 8.13367 18.9063 9.23867 18.798 9.516C19.4913 10.2743 19.9095 11.2472 19.9095 12.4345C19.9095 16.6162 17.3767 17.5348 14.963 17.8035C15.353 18.1393 15.6997 18.8045 15.6997 19.8185L15.6867 22.8042C15.6867 23.0858 15.8708 23.4152 16.3865 23.335C18.5567 22.6139 20.4443 21.2271 21.7812 19.3717C23.1181 17.5164 23.8361 15.2868 23.8333 13C23.8333 6.98317 18.9735 2.12333 13 2.12333Z" fill="url(#paint0_linear_49_2)"/>
</g>
<defs>
<linearGradient id="paint0_linear_49_2" x1="13" y1="0" x2="13" y2="26" gradientUnits="userSpaceOnUse">
<stop stop-color="#D3ACE1"/>
<stop offset="1" stop-color="#9F60B5"/>
</linearGradient>
<clipPath id="clip0_49_2">
<rect width="26" height="26" fill="white"/>
</clipPath>
</defs>
</svg>
