<svg width="26" height="26" viewBox="0 0 26 26" fill="none" xmlns="http://www.w3.org/2000/svg">
<g clip-path="url(#clip0_49_10)">
<path d="M13 2.16667C18.9735 2.16667 23.8333 7.0265 23.8333 13C23.8333 18.9735 18.9735 23.8333 13 23.8333C7.0265 23.8333 2.16667 18.9735 2.16667 13C2.16667 7.0265 7.0265 2.16667 13 2.16667ZM13 0C5.82075 0 0 5.82075 0 13C0 20.1793 5.82075 26 13 26C20.1793 26 26 20.1793 26 13C26 5.82075 20.1793 0 13 0ZM13 7.67217C14.7355 7.67217 14.9413 7.67867 15.6271 7.71008C17.3897 7.79025 18.2108 8.6255 18.2921 10.374C18.3224 11.0598 18.3289 11.2645 18.3289 13C18.3289 14.7355 18.3224 14.9413 18.2921 15.626C18.2108 17.3734 17.3908 18.2108 15.6271 18.291C14.9413 18.3213 14.7366 18.3289 13 18.3289C11.2645 18.3289 11.0587 18.3224 10.374 18.291C8.60817 18.2098 7.79025 17.3713 7.709 15.626C7.67867 14.9413 7.67108 14.7355 7.67108 13C7.67108 11.2645 7.67867 11.0587 7.709 10.374C7.78917 8.62442 8.61033 7.78917 10.374 7.709C11.0587 7.67758 11.2645 7.67217 13 7.67217ZM13 6.5C11.2342 6.5 11.0143 6.50758 10.3198 6.54008C7.95817 6.64842 6.64733 7.95817 6.539 10.3198C6.50758 11.0143 6.5 11.2353 6.5 13C6.5 14.7658 6.50758 14.9868 6.539 15.6802C6.64733 18.0408 7.95817 19.3527 10.3198 19.461C11.0143 19.4924 11.2342 19.5 13 19.5C14.7658 19.5 14.9868 19.4924 15.6813 19.461C18.0386 19.3527 19.3548 18.0429 19.461 15.6802C19.4924 14.9868 19.5 14.7658 19.5 13C19.5 11.2353 19.4924 11.0143 19.461 10.3198C19.3548 7.96142 18.0429 6.64733 15.6813 6.54008C14.9868 6.50758 14.7658 6.5 13 6.5ZM13 9.66225C11.1573 9.66225 9.66225 11.1562 9.66225 13C9.66225 14.8438 11.1573 16.3378 13 16.3378C14.8428 16.3378 16.3378 14.8438 16.3378 13C16.3378 11.1573 14.8428 9.66225 13 9.66225ZM13 15.1667C11.8029 15.1667 10.8333 14.1971 10.8333 13C10.8333 11.804 11.8029 10.8333 13 10.8333C14.196 10.8333 15.1678 11.8029 15.1678 13C15.1678 14.1971 14.196 15.1667 13 15.1667ZM16.4688 8.75117C16.0387 8.75117 15.6888 9.1 15.6888 9.53117C15.6888 9.96125 16.0377 10.3112 16.4688 10.3112C16.9 10.3112 17.2499 9.96233 17.2499 9.53117C17.2499 9.1 16.9011 8.75117 16.4688 8.75117Z" fill="url(#paint0_linear_49_10)"/>
</g>
<defs>
<linearGradient id="paint0_linear_49_10" x1="13" y1="0" x2="13" y2="26" gradientUnits="userSpaceOnUse">
<stop stop-color="#D3ACE1"/>
<stop offset="1" stop-color="#9F60B5"/>
</linearGradient>
<clipPath id="clip0_49_10">
<rect width="26" height="26" fill="white"/>
</clipPath>
</defs>
</svg>
