<svg width="26" height="26" viewBox="0 0 26 26" fill="none" xmlns="http://www.w3.org/2000/svg">
<g clip-path="url(#clip0_34_21)">
<path d="M13 0C5.81999 0 0 5.81999 0 13C0 20.18 5.81999 26 13 26C20.18 26 26 20.18 26 13C26 5.81999 20.18 0 13 0ZM13 23.9688C6.94195 23.9688 2.03125 19.0581 2.03125 13C2.03125 6.94195 6.94195 2.03125 13 2.03125C19.0581 2.03125 23.9688 6.94195 23.9688 13C23.9688 19.0581 19.0581 23.9688 13 23.9688Z" fill="url(#paint0_linear_34_21)"/>
<path d="M16.6118 19.4984C16.9014 19.4992 19.5 17.5775 19.5 17.3323C19.5 17.0871 16.592 15.2551 16.3404 15.2551C16.0889 15.2551 15.2447 16.2676 15.017 16.3802C14.7885 16.4929 13.3666 16.4524 11.7821 14.8679C10.1967 13.2841 9.6556 11.46 9.6556 11.1736C9.6556 10.8871 10.9775 10.0024 11.014 9.79454C11.0505 9.58664 9.27154 6.50005 8.98275 6.50005C8.69395 6.50005 6.5 9.16602 6.5 9.38819C6.5 9.61035 6.70074 12.4684 10.3197 16.0865C13.9387 19.7047 16.3222 19.4969 16.6118 19.4984Z" fill="url(#paint1_linear_34_21)"/>
</g>
<defs>
<linearGradient id="paint0_linear_34_21" x1="13" y1="0" x2="13" y2="26" gradientUnits="userSpaceOnUse">
<stop stop-color="#D3ACE1"/>
<stop offset="1" stop-color="#9F60B5"/>
</linearGradient>
<linearGradient id="paint1_linear_34_21" x1="13" y1="6.50005" x2="13" y2="19.5002" gradientUnits="userSpaceOnUse">
<stop stop-color="#D3ACE1"/>
<stop offset="1" stop-color="#9F60B5"/>
</linearGradient>
<clipPath id="clip0_34_21">
<rect width="26" height="26" fill="white"/>
</clipPath>
</defs>
</svg>
